<?xml version="1.0" encoding="utf-8"?>
<!-- Generator: Adobe Illustrator 26.0.2, SVG Export Plug-In . SVG Version: 6.00 Build 0)  -->
<svg version="1.0" id="Layer_1" xmlns="http://www.w3.org/2000/svg" xmlns:xlink="http://www.w3.org/1999/xlink" x="0px" y="0px"
	 viewBox="0 0 1000 88.97" style="enable-background:new 0 0 1000 88.97;" xml:space="preserve">
<style type="text/css">
	.st0{fill:#E1DBD3;}
</style>
<path class="st0" d="M980.96-242.58c-3.14-0.73-6.34-1.35-9.31-2.29c-8.82-2.8-16.48-5.79-25.85-7.58
	c-7.18-1.37-13.01-3.31-20.54-3.26c-3.97,0.03-7.93-0.03-11.9-0.01c-6.1,0.04-11.67-1.25-17.79-1.16
	c-6.07,0.09-11.63-1.29-17.5-2.33c-9.06-1.61-18.26-2.75-27.52-3.62c-2.36-0.22-4.86-0.28-7.11-0.91c-1.83-0.51-3.31-1.48-5.16-1.98
	c-6.18-1.66-13.97-0.46-20.21,0.42c-6.73,0.95-14.81,0.45-21.71,0.26c-4.56-0.13-8.48-1.2-13.14-1.16
	c-20.11,0.17-40.29-0.94-58.53-7.45c-7.14-2.55-14.44-4.59-21.94-6.8c-5.3-1.56-8.07-2.07-13.67-2.08c-1.84,0-3.97,0.23-5.78,0.04
	c-2.11-0.21-3.71-1.01-5.78-1.27c-3.62-0.45-8.23,0.05-11.9,0.06c-2.36,0-5.27,0.37-7.6,0.06c-5.42-0.72-10.79-1.12-16.25-1.78
	c-4.63-0.57-8.25-1.25-12.81-0.13c-10.47,2.55-20.09,2.27-31.2,2.27c-27.52,0-55.04,0-82.56,0c-50.09,0-100.18,0-150.26,0
	c-121.64,0-243.28,0-364.93,0C0-160.3,0-37.29,0,85.72c0,9.78-0.32,16.85,6.02,24.78c1.69,2.12,3.18,3.71,5.32,5.33
	c2.15,1.63,2.92,3.25,4.81,4.96c2.43,2.2,7.6,4.78,10.6,6.33c3.64,1.87,6.25,1.62,8.75,5.27c1.4,2.04,1.54,4.48,3.54,6.53
	c1.45,1.49,2.31,1.96,4.17,3.15c6.19,3.95,10.56,8.42,15.51,13.7c2.9,3.09,6.69,5.88,9.13,9.4c3.07,4.42,1.46,6.67,7.33,7.58
	c7.07,1.09,13.61-0.09,20.85,1.8c14.04,3.66,27.97,8.05,41.81,12.35c8.66,2.69,16.72,2.71,25.09-0.79
	c8.05-3.37,15.37-7.24,24.18-8.36c9.53-1.22,19.5-0.48,29.1-0.48c39.34,0,78.69,0,118.03,0c42.78,0,85.56,0,128.34,0
	c43.54,0,87.08,0,130.62,0c41.63,0,83.26,0,124.89,0c37.04,0,74.09,0,111.13,0c29.78,0,59.57,0,89.35,0c19.85,0,39.7,0,59.55,0
	c7.24,0,14.49,0,21.73,0c0,0,0-7.7,0-8.09c0-10.91,0-21.81,0-32.72c0-17.32,0-34.63,0-51.95c0-21.6,0-43.2,0-64.81
	c0-23.77,0-47.53,0-71.3c0-23.81,0-47.62,0-71.42c0-21.73,0-43.45,0-65.18c0-9.42,0-18.84,0-28.26c0-4.23,0-8.47,0-12.7
	c0-1.98,0-3.97,0-5.95c0-0.73,0.43-2.38-0.26-2.95c-0.54-0.45-5.74-1.06-6.85-1.3c-2.89-0.62-4.7-1.26-7.52-2.1
	C983.85-241.89,982.41-242.25,980.96-242.58z"/>
</svg>
